<?xml version="1.0" encoding="utf-8"?>
<!-- Generator: Adobe Illustrator 22.1.0, SVG Export Plug-In . SVG Version: 6.00 Build 0)  -->
<svg version="1.1" id="Capa_1" xmlns="http://www.w3.org/2000/svg" xmlns:xlink="http://www.w3.org/1999/xlink" x="0px" y="0px"
	 viewBox="0 0 501.4 501.4" style="enable-background:new 0 0 501.4 501.4;" xml:space="preserve">
<style type="text/css">
	.st0{fill:none;stroke:#000000;stroke-width:7;stroke-miterlimit:10;}
</style>
<g>
	<g>
		<path class="st0" d="M246.8,263c10.3-9.4,33.5-29.9,44.2-35.2c14.7-7.4,72-7.9,89.1-7.9c4.9,0,9.7,0,14.5,0.1v-33.5v-60.7
			c-16.7,0-246.5,0-246.5,0l-76,64.9l-53,17.9l-6.2,22L0,244.1v26.2h4.5h0.7v8.2h31.3l0,0h0.1c0.2,21.3,17.6,38.5,39,38.5
			s38.7-17.2,39-38.5h71.5L246.8,263z M75.6,292.8c-8,0-14.5-6.4-14.7-14.4h-0.1c0.1-8,6.6-14.6,14.7-14.6s14.7,6.6,14.7,14.7l0,0
			h0.1C90,286.5,83.5,292.8,75.6,292.8z M102.6,191.4l55.4-51.2h53.3v51.2H102.6L102.6,191.4z"/>
		<path class="st0" d="M501.4,346.5v-35.6l-8.1-25.5l-38-42.9c0,0-4.1-4.2-13.2-5c-60.6-4.7-133.3-1.4-144.2,4.1
			C287,247,254.3,277,254.3,277l-77.2,19.8l-7.2,20.2l-6.7,5.9l4.6,24.5h5.5v8.2h27.6c4.4,11.8,15.8,20.2,29.2,20.2
			c16.3,0,29.6-12.5,31-28.4h158.6c1.4,15.9,14.7,28.4,31,28.4c13.3,0,24.7-8.4,29.2-20.2h16.7v-8.2h4.9c0-0.2,0-0.4,0-0.7
			L501.4,346.5z M230,356c-6.3,0-11.5-5.2-11.5-11.5S223.7,333,230,333s11.5,5.2,11.5,11.5C241.5,350.9,236.3,356,230,356z
			 M364,278.8h-76.5l21.7-27.1c0,0,35.3-3,54.8-3.3V278.8L364,278.8z M383.6,278.8v-30.4c30.8-0.7,53.6,2.3,53.6,2.3l22.9,28.1
			H383.6L383.6,278.8z M450.7,356c-6.3,0-11.5-5.2-11.5-11.5s5.2-11.5,11.5-11.5s11.5,5.2,11.5,11.5C462.1,350.9,457,356,450.7,356z
			"/>
	</g>
</g>
</svg>
