<?xml version="1.0" encoding="utf-8"?>
<!-- Generator: Adobe Illustrator 22.1.0, SVG Export Plug-In . SVG Version: 6.00 Build 0)  -->
<svg version="1.1" id="Capa_1" xmlns="http://www.w3.org/2000/svg" xmlns:xlink="http://www.w3.org/1999/xlink" x="0px" y="0px"
	 viewBox="0 0 512 512" style="enable-background:new 0 0 512 512;" xml:space="preserve">
<style type="text/css">
	.st0{font-family:'ArialRoundedMTBold';}
	.st1{font-size:92px;}
</style>
<g>
	<g>
		<path d="M153.1,314.9c3.2-1.7,6.3-3.6,9.3-5.7l48.2-32.6c14.6-9.9,31.7-15.1,49.4-15.1h88.6c23.5,0,45.6,9.1,62.3,25.7
			c8.6,8.5,18.3,15.7,29,21.2c6.3,3.3,10.2,9.7,10.2,16.8c0,10.5-8.5,19-19,19h-30.2c-4,0-7.3-3.3-7.3-7.3s3.3-7.3,7.3-7.3H431
			c2.4,0,4.4-2,4.4-4.4c0-1.6-0.9-3.1-2.4-3.9c-12-6.2-22.9-14.2-32.6-23.8c-13.9-13.8-32.4-21.5-52-21.5h-19.8v53.6h24.2
			c4,0,7.3,3.3,7.3,7.3s-3.3,7.3-7.3,7.3h-200c-6,0-10.9-4.9-10.9-10.9C142.1,325.7,146.3,318.7,153.1,314.9z M314.1,329.7v-53.6
			H260c-14.7,0-29,4.4-41.2,12.6l-48.2,32.6c-3.4,2.3-6.8,4.4-10.4,6.3c-0.9,0.5-1.7,1.2-2.3,2H314.1z"/>
	</g>
</g>
<g>
	<g>
		<path d="M296,355.4h22.5c4,0,7.3,3.3,7.3,7.3s-3.3,7.3-7.3,7.3H296c-4,0-7.3-3.3-7.3-7.3S292,355.4,296,355.4z"/>
	</g>
</g>
<g>
	<g>
		<path d="M485.1,296.7l-10.5-2.2c-18.2-3.8-34.9-12.8-48.1-26c-20.9-20.8-48.6-32.2-78.1-32.2H260c-22.2,0-43.6,6.6-61.9,19
			l-48.2,32.6c-8.6,5.8-21.7,13.9-35,16.6l-9.7,1.9v-87.9h55.3c8.4,0,15.5-5.8,17.6-13.6c-6.6-0.6-13.2-1-19.9-0.9
			c-0.2,0-0.4,0-0.6-0.1H18.3c-2,0-3.6-1.6-3.6-3.6V58.2c0-2,1.6-3.6,3.6-3.6h142.1c0,0,0,0,0,0c0.2-0.1,0.5-0.2,0.9-0.2
			c0.9,0.2,1.8,0.3,2.7,0.4c3.9-0.4,7.9-0.3,11.8-0.1c0.1,0,0.3-0.1,0.4-0.1c0.2-0.1,0.4-0.2,0.7-0.2c0.4-0.1,0.7-0.2,1.1-0.3
			c0.1,0,0.1,0,0.2,0C176.2,46,169,40,160.4,40H18.3c-10,0-18.2,8.2-18.2,18.2v142.1c0,10,8.2,18.2,18.2,18.2h48.7v95.4l-18.8,3.7
			c-16.5,3.3-30.9,13.4-39.6,27.8l-2.3,3.8C2.2,356.1,0,363.9,0,371.9v37.8c0,14.9,12.1,27,27,27h13.8c2.2,7.7,6.3,15,12.3,21.1
			C62.4,467,74.5,472,87.4,472c12.9,0,25.1-5,34.2-14.2c6.1-6.1,10.2-13.4,12.3-21.1h242.2c2.2,7.7,6.3,15,12.3,21.1
			c9.4,9.4,21.8,14.2,34.2,14.2c12.4,0,24.8-4.7,34.2-14.2c7.1-7.1,11.5-15.9,13.3-25.1l29.1-12.9c7.7-3.4,12.7-11.1,12.7-19.5
			v-70.6C512,313.8,500.7,299.9,485.1,296.7z M81.6,218.4h8.9v90.8l-8.9,1.8V218.4z M111.3,447.5c-6.4,6.4-14.9,9.9-23.9,9.9
			c-9,0-17.5-3.5-23.9-9.9c-11.5-11.5-13-29.3-4.4-42.4c0-0.1,0.1-0.1,0.1-0.2c0.2-0.4,0.5-0.7,0.8-1.1c0.1-0.2,0.2-0.3,0.4-0.5
			c0.2-0.3,0.4-0.6,0.7-0.9c0.2-0.3,0.4-0.5,0.6-0.8c0.2-0.2,0.3-0.4,0.5-0.6c0.4-0.5,0.8-0.9,1.3-1.4c6.4-6.4,14.9-9.9,23.9-9.9
			s17.5,3.5,23.9,9.9c0.4,0.4,0.9,0.9,1.3,1.4c0.2,0.2,0.4,0.4,0.5,0.6c0.2,0.2,0.4,0.5,0.6,0.7c0.2,0.3,0.5,0.6,0.7,0.9
			c0.1,0.2,0.2,0.3,0.4,0.5c0.3,0.4,0.5,0.7,0.8,1.1c0,0.1,0.1,0.1,0.1,0.2C124.3,418.2,122.8,436,111.3,447.5z M446.7,447.5
			c-6.4,6.4-14.9,9.9-23.9,9.9s-17.5-3.5-23.9-9.9c-11.5-11.5-13-29.3-4.4-42.4c0-0.1,0.1-0.1,0.1-0.2c0.3-0.4,0.5-0.7,0.8-1.1
			c0.1-0.2,0.2-0.3,0.4-0.5c0.2-0.3,0.4-0.6,0.7-0.9c0.2-0.3,0.4-0.5,0.6-0.8c0.2-0.2,0.3-0.4,0.5-0.6c0.4-0.5,0.8-0.9,1.3-1.4
			c0.4-0.4,0.8-0.8,1.2-1.2c0.1-0.1,0.1-0.1,0.2-0.2c0.4-0.3,0.7-0.6,1.1-1c0,0,0,0,0,0c12.3-10,30.2-10,42.5,0c0,0,0.1,0.1,0.1,0.1
			c0.4,0.3,0.7,0.6,1,0.9c0.1,0.1,0.2,0.2,0.3,0.2c0.3,0.3,0.7,0.6,1,1c0.1,0.1,0.2,0.1,0.2,0.2c0,0,0.1,0.1,0.1,0.1
			c0.4,0.4,0.8,0.8,1.1,1.2c0.1,0.2,0.3,0.3,0.4,0.5c0.2,0.3,0.5,0.6,0.7,0.9c0.2,0.2,0.3,0.4,0.5,0.6c0.2,0.3,0.4,0.5,0.6,0.8
			c0.2,0.2,0.3,0.5,0.5,0.7c0.2,0.2,0.3,0.5,0.5,0.7c0.2,0.3,0.3,0.5,0.5,0.8c0.1,0.2,0.3,0.4,0.4,0.6c0.2,0.3,0.4,0.6,0.5,0.9
			c0.1,0.2,0.2,0.3,0.3,0.5c0.2,0.4,0.4,0.7,0.5,1.1c0,0.1,0.1,0.2,0.1,0.3C459.2,422.1,456.9,437.3,446.7,447.5z M497.4,400.4
			c0,2.7-1.6,5.1-4,6.2l-22.7,10.1c-0.8-5.4-2.5-10.7-5-15.5c0,0,0,0,0-0.1c-0.4-0.7-0.7-1.3-1.1-2c0,0,0-0.1-0.1-0.1
			c-0.8-1.3-1.6-2.6-2.5-3.9c-0.1-0.1-0.2-0.3-0.3-0.4c-0.3-0.5-0.7-0.9-1-1.4c-0.2-0.2-0.3-0.4-0.5-0.6c-0.3-0.4-0.7-0.8-1.1-1.2
			c-0.1-0.2-0.3-0.3-0.4-0.5c-0.5-0.6-1-1.1-1.6-1.7c-9.4-9.4-21.8-14.1-34.2-14.1c-9.3,0-18.6,2.7-26.6,8c-2.7,1.8-5.2,3.8-7.6,6.2
			c-0.6,0.6-1.1,1.2-1.7,1.8c-0.1,0.1-0.2,0.2-0.3,0.3c-0.5,0.5-0.9,1-1.4,1.6c0,0-0.1,0.1-0.1,0.1c-6.7,8.3-10.5,18.4-10.8,29
			H135.8c-0.3-10.6-4-20.7-10.8-29c0-0.1-0.1-0.1-0.1-0.2c-0.4-0.5-0.9-1-1.3-1.5c-0.1-0.1-0.2-0.2-0.3-0.4c-0.5-0.5-0.9-1-1.4-1.5
			c-0.1-0.1-0.2-0.2-0.2-0.3c-6.9-6.9-15.4-11.4-24.7-13.2c-3.1-0.6-6.3-0.9-9.5-0.9c-4,0-8,0.5-11.8,1.4
			c-8.4,2.1-16.1,6.4-22.4,12.7c-0.1,0.1-0.2,0.2-0.2,0.3c-0.5,0.5-1,1-1.4,1.5c-0.1,0.1-0.2,0.3-0.3,0.4c-0.4,0.5-0.9,1-1.3,1.5
			c0,0.1-0.1,0.1-0.1,0.2c-6.7,8.3-10.5,18.4-10.7,28.9H27c-6.9,0-12.5-5.6-12.5-12.5h0v-37.8c0-5.3,1.5-10.5,4.2-15.1l2.3-3.8
			c6.6-10.9,17.5-18.6,30-21.1l66.6-13.2c15.9-3.2,30.7-12.2,40.3-18.8l48.2-32.6c15.9-10.8,34.5-16.5,53.7-16.5h88.5
			c25.6,0,49.6,9.9,67.8,28c15.2,15.2,34.4,25.5,55.4,29.9l10.5,2.2c8.8,1.9,15.3,9.8,15.3,18.8V400.4z"/>
	</g>
</g>
<g>
	<g>
		<path d="M407.1,408c4.2-4.2,9.7-6.5,15.7-6.5s11.5,2.3,15.7,6.5c4.2,4.2,6.5,9.7,6.5,15.7c0,5.9-2.3,11.5-6.5,15.7
			c-4.2,4.2-9.7,6.5-15.7,6.5c-5.9,0-11.5-2.3-15.7-6.5C398.5,430.7,398.5,416.6,407.1,408z M417.4,429c1.4,1.4,3.3,2.2,5.3,2.2
			c2,0,3.9-0.8,5.3-2.2c1.4-1.4,2.2-3.3,2.2-5.3c0-2-0.8-3.9-2.2-5.3c-1.4-1.4-3.3-2.2-5.3-2.2c-2,0-3.9,0.8-5.3,2.2
			C414.5,421.2,414.5,426,417.4,429z"/>
	</g>
</g>
<g>
	<g>
		<path d="M71.8,408c4.2-4.2,9.7-6.5,15.7-6.5c5.9,0,11.5,2.3,15.7,6.5c8.6,8.6,8.6,22.7,0,31.3c-4.2,4.2-9.7,6.5-15.7,6.5
			c-5.9,0-11.5-2.3-15.7-6.5c-4.2-4.2-6.5-9.7-6.5-15.7S67.6,412.2,71.8,408z M82.1,429c1.4,1.4,3.3,2.2,5.3,2.2
			c2,0,3.9-0.8,5.3-2.2c2.9-2.9,2.9-7.7,0-10.7c-1.4-1.4-3.3-2.2-5.3-2.2c-2,0-3.9,0.8-5.3,2.2c-1.4,1.4-2.2,3.3-2.2,5.3
			C79.9,425.7,80.7,427.6,82.1,429z"/>
	</g>
</g>
<text transform="matrix(1 0 0 1 41.1496 155.402)" class="st0 st1">Rentals</text>
</svg>
