<?xml version="1.0" encoding="utf-8"?>
<!-- Generator: Adobe Illustrator 22.1.0, SVG Export Plug-In . SVG Version: 6.00 Build 0)  -->
<svg version="1.1" id="Layer_1" xmlns="http://www.w3.org/2000/svg" xmlns:xlink="http://www.w3.org/1999/xlink" x="0px" y="0px"
	 viewBox="0 0 512 512" style="enable-background:new 0 0 512 512;" xml:space="preserve">
<style type="text/css">
	.st0{font-family:'ArialRoundedMTBold';}
	.st1{font-size:78.153px;}
</style>
<path d="M381.2,121.5c-2,0-3.9-0.3-5.8-1l-56.6-21.8l-4.3-11.4c-0.4-1-1.1-1.8-2.1-2.1l-61.7-24.4c-1.9-0.8-4.1,0.2-4.8,2.1
	c-0.4,1.1-0.3,2.2,0.2,3.2l2.4,4.2l-69.7-27.6c-5.8-2.3-8.6-8.9-6.3-14.7c1.2-3,3.6-5.4,6.6-6.5c19.6-7.1,41.3-5.8,59.9,3.7
	l139.6,68.7c1.2,0.6,2.6,0.5,3.7-0.3l33-22.8c9.8-6.8,22.4-8.2,33.4-3.8l8.9,3.5L405,113.3C398.3,118.8,389.9,121.7,381.2,121.5
	L381.2,121.5z"/>
<path d="M313.9,168.2l-56-96.7l50.3,19.9l29,76.8H313.9z"/>
<path d="M289.5,41.7l61.3-22.5l12.5,7.6l-45.1,29L289.5,41.7z"/>
<g>
	<g>
		<path d="M158.3,350.6c3.1-1.5,6.1-3.1,9-4.8l46.9-27.7c14.2-8.4,30.8-12.8,48-12.8h86c22.8,0,44.3,7.8,60.5,21.9
			c8.3,7.2,17.8,13.3,28.2,18c6.1,2.8,9.9,8.3,9.9,14.3c0,8.9-8.3,16.1-18.4,16.1H399c-3.9,0-7.1-2.8-7.1-6.2s3.2-6.2,7.1-6.2h29.3
			c2.4,0,4.3-1.7,4.3-3.7c0-1.4-0.9-2.7-2.3-3.3c-11.6-5.3-22.3-12.1-31.6-20.2c-13.5-11.8-31.4-18.2-50.5-18.2h-19.3v45.5h23.5
			c3.9,0,7.1,2.8,7.1,6.2s-3.2,6.2-7.1,6.2H158.2c-5.8,0-10.6-4.1-10.6-9.2C147.6,359.8,151.7,353.7,158.3,350.6z M314.7,363.1
			v-45.5h-52.6c-14.3,0-28.2,3.7-40.1,10.7L175.2,356c-3.3,1.9-6.6,3.7-10.1,5.4c-0.9,0.4-1.6,1-2.2,1.7H314.7z"/>
	</g>
</g>
<g>
	<g>
		<path d="M296.6,387.3h21.9c3.9,0,7.1,2.8,7.1,6.2s-3.2,6.2-7.1,6.2h-21.9c-3.9,0-7.1-2.8-7.1-6.2S292.7,387.3,296.6,387.3z"/>
	</g>
</g>
<g>
	<g>
		<path d="M480.9,335.1l-10.2-1.9c-17.7-3.2-33.9-10.9-46.7-22c-20.3-17.7-47.2-27.4-75.8-27.4h-86c-21.5,0-42.3,5.6-60.2,16.1
			l-46.9,27.7c-8.4,5-21,11.8-34,14.1l-9.4,1.6v-74.7h53.7c8.2,0,15.1-4.9,17.1-11.5c-6.4-0.5-12.9-0.8-19.3-0.8
			c-0.2,0-0.4,0-0.6-0.1H27.4c-1.9,0-3.5-1.4-3.5-3.1V132.5c0-1.7,1.6-3.1,3.5-3.1h138c0,0,0,0,0,0c0.2-0.1,0.5-0.2,0.8-0.1
			c0.9,0.2,1.7,0.3,2.6,0.4c3.8-0.4,7.7-0.3,11.5-0.1c0.1,0,0.3-0.1,0.4-0.1c0.2-0.1,0.4-0.2,0.7-0.2c0.3-0.1,0.7-0.2,1-0.2
			c0.1,0,0.1,0,0.2,0c-1.8-6.9-8.8-12-17.2-12h-138c-9.7,0-17.7,6.9-17.7,15.5v120.7c0,8.5,7.9,15.5,17.7,15.5h47.3v81.1l-18.3,3.2
			c-16,2.8-30.1,11.4-38.5,23.6l-2.2,3.2c-4,5.8-6.1,12.4-6.1,19.2v32.1c0,12.7,11.8,23,26.3,23h13.4c2.1,6.6,6.1,12.8,12,17.9
			c8.9,7.8,20.7,12,33.2,12c12.6,0,24.4-4.3,33.2-12c5.9-5.2,9.9-11.3,12-17.9h235.3c2.1,6.6,6.1,12.8,12,17.9
			c9.2,8,21.2,12,33.2,12c12,0,24.1-4,33.2-12c6.9-6,11.2-13.5,12.9-21.3l28.2-11c7.5-2.9,12.3-9.4,12.3-16.6v-60
			C507,349.6,496,337.8,480.9,335.1z M88.9,268.6h8.6v77.1l-8.6,1.5V268.6z M117.8,463.2c-6.2,5.4-14.4,8.4-23.2,8.4
			c-8.8,0-17-3-23.2-8.4c-11.2-9.8-12.6-24.9-4.3-36c0-0.1,0.1-0.1,0.1-0.2c0.2-0.3,0.5-0.6,0.8-0.9c0.1-0.1,0.2-0.3,0.4-0.4
			c0.2-0.2,0.4-0.5,0.7-0.7c0.2-0.2,0.4-0.4,0.6-0.6c0.2-0.2,0.3-0.4,0.5-0.5c0.4-0.4,0.8-0.8,1.2-1.1c6.2-5.4,14.4-8.4,23.2-8.4
			s17,3,23.2,8.4c0.4,0.4,0.8,0.8,1.2,1.1c0.2,0.2,0.3,0.4,0.5,0.5c0.2,0.2,0.4,0.4,0.6,0.6c0.2,0.2,0.4,0.5,0.7,0.7
			c0.1,0.1,0.2,0.3,0.4,0.4c0.3,0.3,0.5,0.6,0.8,1c0,0.1,0.1,0.1,0.1,0.2C130.3,438.3,128.9,453.5,117.8,463.2z M443.5,463.2
			c-6.2,5.4-14.4,8.4-23.2,8.4c-8.8,0-17-3-23.2-8.4c-11.2-9.8-12.6-24.9-4.3-36c0-0.1,0.1-0.1,0.1-0.2c0.2-0.3,0.5-0.6,0.8-0.9
			c0.1-0.1,0.2-0.3,0.4-0.4c0.2-0.2,0.4-0.5,0.7-0.7c0.2-0.2,0.4-0.4,0.6-0.6c0.2-0.2,0.3-0.4,0.5-0.5c0.4-0.4,0.8-0.8,1.2-1.1
			c0.4-0.3,0.8-0.7,1.2-1c0.1-0.1,0.1-0.1,0.2-0.1c0.4-0.3,0.7-0.6,1.1-0.8c0,0,0,0,0,0c12-8.5,29.3-8.5,41.3,0c0,0,0.1,0,0.1,0.1
			c0.3,0.2,0.7,0.5,1,0.8c0.1,0.1,0.2,0.1,0.3,0.2c0.3,0.3,0.7,0.5,1,0.8c0.1,0.1,0.2,0.1,0.2,0.2c0,0,0.1,0.1,0.1,0.1
			c0.4,0.3,0.8,0.7,1.1,1c0.1,0.1,0.3,0.3,0.4,0.4c0.2,0.2,0.5,0.5,0.7,0.7c0.2,0.2,0.3,0.3,0.5,0.5c0.2,0.2,0.4,0.4,0.6,0.7
			c0.2,0.2,0.3,0.4,0.5,0.6c0.2,0.2,0.3,0.4,0.5,0.6c0.2,0.2,0.3,0.5,0.5,0.7c0.1,0.2,0.2,0.4,0.4,0.5c0.2,0.3,0.3,0.5,0.5,0.8
			c0.1,0.1,0.2,0.3,0.3,0.4c0.2,0.3,0.4,0.6,0.5,0.9c0,0.1,0.1,0.2,0.1,0.3C455.7,441.6,453.5,454.5,443.5,463.2z M492.8,423.2
			c0,2.3-1.5,4.3-3.9,5.2l-22.1,8.6c-0.8-4.6-2.4-9.1-4.9-13.2c0,0,0,0,0,0c-0.3-0.6-0.7-1.1-1.1-1.7c0,0,0-0.1-0.1-0.1
			c-0.8-1.1-1.6-2.2-2.5-3.3c-0.1-0.1-0.2-0.2-0.3-0.4c-0.3-0.4-0.7-0.8-1-1.1c-0.1-0.2-0.3-0.3-0.4-0.5c-0.3-0.4-0.7-0.7-1-1
			c-0.1-0.1-0.3-0.3-0.4-0.4c-0.5-0.5-1-0.9-1.5-1.4c-9.2-8-21.2-12-33.2-12c-9,0-18.1,2.3-25.9,6.8c-2.6,1.5-5.1,3.3-7.4,5.3
			c-0.6,0.5-1.1,1-1.6,1.5c-0.1,0.1-0.2,0.2-0.2,0.2c-0.5,0.4-0.9,0.9-1.3,1.3c0,0-0.1,0.1-0.1,0.1c-6.5,7-10.2,15.6-10.5,24.6
			H141.5c-0.3-9-3.9-17.6-10.4-24.6c0,0-0.1-0.1-0.1-0.1c-0.4-0.4-0.8-0.9-1.3-1.3c-0.1-0.1-0.2-0.2-0.3-0.3
			c-0.5-0.4-0.9-0.9-1.4-1.3c-0.1-0.1-0.2-0.1-0.2-0.2c-6.7-5.8-15-9.7-24-11.2c-3-0.5-6.1-0.8-9.2-0.8c-3.9,0-7.8,0.4-11.5,1.2
			c-8.2,1.8-15.7,5.5-21.8,10.8c-0.1,0.1-0.2,0.1-0.2,0.2c-0.5,0.4-0.9,0.8-1.4,1.3c-0.1,0.1-0.2,0.2-0.3,0.3
			c-0.4,0.4-0.8,0.8-1.2,1.3c0,0-0.1,0.1-0.1,0.1c-6.5,7-10.2,15.6-10.4,24.6H35.9c-6.7,0-12.1-4.7-12.1-10.6h0V399
			c0-4.5,1.4-9,4.1-12.8l2.2-3.2c6.4-9.3,17-15.8,29.1-17.9l64.7-11.2c15.5-2.7,29.8-10.4,39.2-15.9l46.9-27.7
			c15.5-9.1,33.5-14,52.2-14h86c24.9,0,48.2,8.4,65.8,23.8c14.8,12.9,33.4,21.7,53.8,25.4l10.2,1.9c8.6,1.6,14.8,8.3,14.8,16V423.2z
			"/>
	</g>
</g>
<g>
	<g>
		<path d="M405.1,416.6c4.1-3.6,9.5-5.5,15.2-5.5c5.7,0,11.1,2,15.2,5.5s6.3,8.3,6.3,13.3s-2.2,9.7-6.3,13.3
			c-4.1,3.6-9.5,5.5-15.2,5.5c-5.7,0-11.1-2-15.2-5.5C396.7,435.9,396.7,424,405.1,416.6z M415.1,434.5c1.4,1.2,3.2,1.9,5.2,1.9
			c2,0,3.8-0.7,5.2-1.9c1.4-1.2,2.2-2.8,2.2-4.5s-0.8-3.3-2.2-4.5c-1.4-1.2-3.2-1.9-5.2-1.9c-2,0-3.8,0.7-5.2,1.9
			C412.3,427.9,412.3,432,415.1,434.5z"/>
	</g>
</g>
<g>
	<g>
		<path d="M79.3,429.6c4.1-3.6,9.5-5.5,15.2-5.5c5.7,0,11.1,2,15.2,5.5c8.4,7.3,8.4,19.3,0,26.6c-4.1,3.6-9.5,5.5-15.2,5.5
			c-5.7,0-11.1-2-15.2-5.5c-4.1-3.6-6.3-8.3-6.3-13.3C73,437.9,75.3,433.2,79.3,429.6z M89.3,447.5c1.4,1.2,3.2,1.9,5.2,1.9
			c2,0,3.8-0.7,5.2-1.9c2.9-2.5,2.9-6.6,0-9.1c-1.4-1.2-3.2-1.9-5.2-1.9c-2,0-3.8,0.7-5.2,1.9c-1.4,1.2-2.1,2.8-2.1,4.5
			C87.2,444.6,88,446.3,89.3,447.5z"/>
	</g>
</g>
<text transform="matrix(1.1436 0 0 1 49.564 215.0581)" class="st0 st1">AiroPort</text>
</svg>
